<svg width="109" height="107" viewBox="0 0 109 107" fill="none" xmlns="http://www.w3.org/2000/svg">
<g filter="url(#filter0_d_163_223)">
<path d="M51.1824 95C51.1824 93.4573 51.8781 92.2332 53.2696 91.3276C54.6611 90.4221 56.55 89.9694 58.9363 89.9694V60.3287C57.4104 59.9732 56.0777 59.3461 54.9384 58.4473C53.799 57.5485 52.8814 56.44 52.1857 55.122L38.9667 63.322C38.4357 63.6741 37.8307 63.8904 37.1518 63.9709C36.4728 64.0514 35.7452 63.9776 34.9688 63.7496L12.2818 57.3355C10.8802 56.923 9.75764 56.1449 8.91402 55.0013C8.0704 53.8543 7.64859 52.5564 7.64859 51.1075C7.64859 49.2764 8.2603 47.7504 9.48371 46.5296C10.7105 45.3055 12.2414 44.6935 14.0766 44.6935H51.9185C52.6276 43.3184 53.5839 42.1345 54.7871 41.1418C55.9904 40.1491 57.3734 39.475 58.9363 39.1195V21.6028C58.9363 20.9521 59.064 20.3032 59.3195 19.6559C59.5749 19.012 59.9799 18.4552 60.5345 17.9857L77.8018 1.88762C78.8874 0.801 80.1478 0.183907 81.583 0.0363408C83.0181 -0.111225 84.3491 0.190615 85.5759 0.941859C87.0816 1.88762 88.058 3.22075 88.505 4.94123C88.952 6.66171 88.7235 8.28494 87.8194 9.8109L68.4598 41.7254C69.9521 42.6644 71.0545 44.1569 71.7671 46.2027C72.4796 48.2485 72.5569 50.1903 71.999 52.0282L87.5471 55.8766C88.2462 56.0812 88.868 56.3612 89.4125 56.7167C89.9503 57.0722 90.362 57.5468 90.6477 58.1404L102.122 78.8667C102.862 80.1612 103.134 81.5111 102.939 82.9164C102.737 84.325 102.092 85.5441 101.003 86.5737C99.7695 87.8045 98.2722 88.4048 96.511 88.3746C94.7498 88.3445 93.2206 87.7123 91.9232 86.4781L66.0096 60.6255C65.6903 60.8201 65.3693 60.9827 65.0467 61.1135C64.724 61.241 64.3677 61.3365 63.9779 61.4003V89.9694C66.3642 89.9694 68.2531 90.4221 69.6446 91.3276C71.036 92.2332 71.7318 93.4573 71.7318 95H51.1824ZM21.1247 9.47888V4.44823H46.3324V9.47888H21.1247ZM63.9779 21.6028V39.1195C63.998 39.1195 64.0132 39.1245 64.0232 39.1346C64.0333 39.1447 64.0468 39.1497 64.0636 39.1497L83.5139 7.14969C83.6819 6.81096 83.7239 6.4521 83.6399 6.07313C83.5559 5.69415 83.3458 5.41914 83.0097 5.2481C82.7576 5.08041 82.4434 5.04017 82.067 5.12736C81.6905 5.21456 81.4166 5.34033 81.2452 5.50466L63.9779 21.6028ZM6 29.6015V24.5708H26.1662V29.6015H6ZM61.442 55.7207C63.1393 55.7207 64.5677 55.1488 65.7273 54.0052C66.8868 52.8582 67.4666 51.4362 67.4666 49.7392C67.4666 48.0456 66.8936 46.6202 65.7474 45.4632C64.598 44.3061 63.1729 43.7276 61.4722 43.7276C59.7749 43.7276 58.3465 44.3011 57.1869 45.4481C56.0273 46.5917 55.4476 48.012 55.4476 49.709C55.4476 51.4027 56.0223 52.828 57.1718 53.9851C58.3179 55.1421 59.7413 55.7207 61.442 55.7207ZM36.3199 59.0308L50.5623 50.2473C50.5421 50.15 50.532 50.0628 50.532 49.9857V49.7241H14.1018C13.6648 49.7241 13.3203 49.8499 13.0683 50.1014C12.8162 50.3529 12.6901 50.6883 12.6901 51.1075C12.6901 51.4429 12.7742 51.7364 12.9422 51.9879C13.1103 52.2394 13.3623 52.4071 13.6985 52.491L36.3199 59.0308ZM86.317 60.7262L69.816 56.6815C69.7757 56.7184 69.737 56.767 69.7 56.8274C69.6597 56.8844 69.621 56.933 69.5841 56.9733L95.3061 82.8007C95.5682 83.0656 95.9094 83.1981 96.3295 83.1981C96.7496 83.1981 97.0858 83.074 97.3378 82.8258C97.5899 82.5776 97.7378 82.3093 97.7815 82.0209C97.8252 81.7325 97.7613 81.4206 97.5899 81.0852L86.317 60.7262ZM16.0831 84.9387V79.908H36.2493V84.9387H16.0831Z" fill="white" fill-opacity="0.69" shape-rendering="crispEdges"/>
</g>
<defs>
<filter id="filter0_d_163_223" x="0" y="0" width="109" height="107" filterUnits="userSpaceOnUse" color-interpolation-filters="sRGB">
<feFlood flood-opacity="0" result="BackgroundImageFix"/>
<feColorMatrix in="SourceAlpha" type="matrix" values="0 0 0 0 0 0 0 0 0 0 0 0 0 0 0 0 0 0 127 0" result="hardAlpha"/>
<feOffset dy="6"/>
<feGaussianBlur stdDeviation="3"/>
<feComposite in2="hardAlpha" operator="out"/>
<feColorMatrix type="matrix" values="0 0 0 0 0 0 0 0 0 0 0 0 0 0 0 0 0 0 0.25 0"/>
<feBlend mode="normal" in2="BackgroundImageFix" result="effect1_dropShadow_163_223"/>
<feBlend mode="normal" in="SourceGraphic" in2="effect1_dropShadow_163_223" result="shape"/>
</filter>
</defs>
</svg>
