<svg width="134" height="118" viewBox="0 0 134 118" fill="none" xmlns="http://www.w3.org/2000/svg">
<g filter="url(#filter0_d_163_228)">
<path d="M98.0479 0.000222846C95.4444 -0.0155074 92.9043 0.801914 90.8006 2.33251C88.6969 3.86311 87.1403 6.02627 86.3593 8.5045L81.489 23.9944C79.2464 24.0769 77.0382 24.5711 74.975 25.4523L63.8343 13.4856L55.7375 4.49534C54.5563 5.57497 53.6001 6.87658 52.9239 8.32558C52.2476 9.77458 51.8646 11.3425 51.7968 12.9395C51.7289 14.5364 51.9775 16.1311 52.5284 17.632C53.0793 19.1329 53.9215 20.5106 55.007 21.6861L66.0259 33.6529C65.4845 34.642 65.0361 35.6791 64.6866 36.7509C64.3666 37.8017 64.1425 38.8792 64.017 39.9703L48.1277 43.4935L36.1956 46.1663C36.5413 47.7269 37.1922 49.2042 38.1111 50.5134C39.0299 51.8226 40.1987 52.938 41.5503 53.7957C42.9019 54.6534 44.4099 55.2366 45.9877 55.5118C47.5656 55.787 49.1824 55.7489 50.7455 55.3995L66.6347 51.8156C67.8205 53.7181 69.3477 55.3861 71.1397 56.7359L66.2695 72.2259L62.6168 83.8281C65.6926 84.7796 69.0209 84.4765 71.8733 82.9851C74.7257 81.4937 76.8698 78.9356 77.8363 75.8706L82.7675 60.4414C85.0101 60.3589 87.2183 59.8646 89.2814 58.9835L100.361 70.9502L108.458 79.8797C110.834 77.7096 112.251 74.6884 112.4 71.4778C112.548 68.2672 111.415 65.1287 109.249 62.7497L98.2305 50.7829C98.7511 49.7916 99.1791 48.7546 99.509 47.6849C99.8946 46.6203 100.18 45.5222 100.361 44.4047L116.129 40.8815L128 38.2695C127.301 35.1305 125.384 32.3961 122.668 30.6653C119.952 28.9346 116.659 28.3488 113.511 29.0363L97.6217 32.5595C96.43 30.6788 94.9032 29.0317 93.1168 27.6999L97.987 12.1492L101.64 0.607672C100.48 0.2266 99.2689 0.0218247 98.0479 0.000222846ZM82.4631 33.1062C83.2699 33.1425 84.0682 33.2855 84.8373 33.5314C87.1454 34.2576 89.0701 35.8682 90.1888 38.0095C91.3074 40.1508 91.5285 42.6476 90.8034 44.9514C90.0756 47.2544 88.4614 49.1749 86.3154 50.2911C84.1694 51.4074 81.6672 51.6279 79.3583 50.9044C77.0502 50.1782 75.1255 48.5676 74.0068 46.4263C72.8882 44.285 72.6671 41.7882 73.3922 39.4844C73.9896 37.5852 75.1939 35.9334 76.821 34.7816C78.448 33.6298 80.4083 33.0414 82.4022 33.1062M42.5269 61.474C35.0998 66.6981 26.6377 69.5531 18.1756 69.5531H6V81.7021H18.1756C26.516 81.7021 34.8563 79.576 42.5269 75.6276C47.2146 78.0574 52.1457 79.6367 57.1986 80.5479L60.4251 70.4035L60.973 68.8242C54.52 67.913 48.1886 65.4224 42.5269 61.474ZM118.32 69.5531C118.625 73.8052 117.59 78.1181 115.033 81.7021H127.756V69.5531H118.32ZM42.5269 85.772C35.0998 90.996 26.6377 93.851 18.1756 93.851H6V106H18.1756C26.516 106 34.8563 103.874 42.5269 99.9255C57.7465 107.822 76.01 107.822 91.2295 99.9255C98.9002 103.874 107.18 106 115.581 106H127.756V93.851H115.581C107.119 93.851 98.6567 90.996 91.2295 85.772C76.3752 96.1593 57.3812 96.1593 42.5269 85.772Z" fill="white" fill-opacity="0.69" shape-rendering="crispEdges"/>
</g>
<defs>
<filter id="filter0_d_163_228" x="0" y="0" width="134" height="118" filterUnits="userSpaceOnUse" color-interpolation-filters="sRGB">
<feFlood flood-opacity="0" result="BackgroundImageFix"/>
<feColorMatrix in="SourceAlpha" type="matrix" values="0 0 0 0 0 0 0 0 0 0 0 0 0 0 0 0 0 0 127 0" result="hardAlpha"/>
<feOffset dy="6"/>
<feGaussianBlur stdDeviation="3"/>
<feComposite in2="hardAlpha" operator="out"/>
<feColorMatrix type="matrix" values="0 0 0 0 0 0 0 0 0 0 0 0 0 0 0 0 0 0 0.25 0"/>
<feBlend mode="normal" in2="BackgroundImageFix" result="effect1_dropShadow_163_228"/>
<feBlend mode="normal" in="SourceGraphic" in2="effect1_dropShadow_163_228" result="shape"/>
</filter>
</defs>
</svg>
