<svg width="128" height="125" viewBox="0 0 128 125" fill="none" xmlns="http://www.w3.org/2000/svg">
<g filter="url(#filter0_d_163_222)">
<path d="M14.6005 49.9808C14.6005 49.4044 14.8268 48.8517 15.2296 48.4442C15.6324 48.0366 16.1788 47.8077 16.7484 47.8077H25.3404C25.91 47.8077 26.4564 48.0366 26.8592 48.4442C27.262 48.8517 27.4883 49.4044 27.4883 49.9808C27.4883 50.5571 27.262 51.1098 26.8592 51.5174C26.4564 51.9249 25.91 52.1538 25.3404 52.1538H16.7484C16.1788 52.1538 15.6324 51.9249 15.2296 51.5174C14.8268 51.1098 14.6005 50.5571 14.6005 49.9808ZM35.1459 23.8604C35.3455 24.0623 35.5824 24.2224 35.8431 24.3317C36.1039 24.441 36.3834 24.4972 36.6656 24.4972C36.9478 24.4972 37.2273 24.441 37.488 24.3317C37.7488 24.2224 37.9857 24.0623 38.1853 23.8604C38.3849 23.6585 38.5432 23.4188 38.6512 23.155C38.7592 22.8912 38.8148 22.6085 38.8148 22.3229C38.8148 22.0374 38.7592 21.7547 38.6512 21.4909C38.5432 21.2271 38.3849 20.9874 38.1853 20.7855L32.1065 14.6683C31.6929 14.3544 31.1812 14.202 30.6654 14.2391C30.1497 14.2762 29.6645 14.5003 29.2989 14.8701C28.9333 15.24 28.7118 15.7309 28.6751 16.2527C28.6385 16.7745 28.7891 17.2921 29.0993 17.7106L35.1459 23.8604ZM64.004 13.0385C64.5737 13.0385 65.12 12.8095 65.5229 12.402C65.9257 11.9944 66.152 11.4417 66.152 10.8654V2.17308C66.152 1.59674 65.9257 1.04401 65.5229 0.636479C65.12 0.228948 64.5737 0 64.004 0C63.4343 0 62.888 0.228948 62.4851 0.636479C62.0823 1.04401 61.856 1.59674 61.856 2.17308V10.8654C61.856 11.4417 62.0823 11.9944 62.4851 12.402C62.888 12.8095 63.4343 13.0385 64.004 13.0385ZM91.3424 24.496C91.6246 24.4962 91.904 24.4402 92.1648 24.3311C92.4255 24.2221 92.6625 24.0621 92.8621 23.8604L98.9355 17.7106C99.1691 17.518 99.36 17.278 99.4958 17.0059C99.6317 16.7339 99.7094 16.436 99.7241 16.1316C99.7387 15.8271 99.6899 15.523 99.5808 15.2389C99.4716 14.9548 99.3047 14.6971 99.0907 14.4826C98.8767 14.268 98.6205 14.1014 98.3388 13.9936C98.057 13.8857 97.756 13.839 97.4552 13.8565C97.1544 13.874 96.8607 13.9553 96.593 14.0952C96.3253 14.235 96.0897 14.4303 95.9015 14.6683L89.8227 20.7855C89.522 21.0894 89.3171 21.4768 89.2341 21.8985C89.1511 22.3203 89.1936 22.7575 89.3563 23.1548C89.5191 23.552 89.7946 23.8916 90.1482 24.1303C90.5017 24.3691 90.9173 24.4963 91.3424 24.496ZM102.668 52.1538H111.26C111.829 52.1538 112.376 51.9249 112.778 51.5174C113.181 51.1098 113.408 50.5571 113.408 49.9808C113.408 49.4044 113.181 48.8517 112.778 48.4442C112.376 48.0366 111.829 47.8077 111.26 47.8077H102.668C102.098 47.8077 101.552 48.0366 101.149 48.4442C100.746 48.8517 100.52 49.4044 100.52 49.9808C100.52 50.5571 100.746 51.1098 101.149 51.5174C101.552 51.9249 102.098 52.1538 102.668 52.1538ZM42.5242 52.1538C43.0939 52.1538 43.6402 51.9249 44.0431 51.5174C44.4459 51.1098 44.6722 50.5571 44.6722 49.9808C44.6722 44.7937 46.7089 39.8192 50.3343 36.1514C53.9598 32.4836 58.8769 30.4231 64.004 30.4231C69.1311 30.4231 74.0482 32.4836 77.6737 36.1514C81.2991 39.8192 83.3358 44.7937 83.3358 49.9808C83.3358 50.5571 83.5621 51.1098 83.9649 51.5174C84.3678 51.9249 84.9141 52.1538 85.4838 52.1538C86.0535 52.1538 86.5998 51.9249 87.0026 51.5174C87.4055 51.1098 87.6318 50.5571 87.6318 49.9808C87.6318 43.6411 85.1424 37.561 80.7114 33.0782C76.2803 28.5953 70.2705 26.0769 64.004 26.0769C57.7375 26.0769 51.7277 28.5953 47.2966 33.0782C42.8656 37.561 40.3762 43.6411 40.3762 49.9808C40.3762 50.5571 40.6025 51.1098 41.0053 51.5174C41.4082 51.9249 41.9545 52.1538 42.5242 52.1538ZM121.704 111.913C121.516 112.243 121.246 112.516 120.921 112.707C120.596 112.898 120.227 112.999 119.851 113H8.15653C7.77875 113.002 7.40727 112.902 7.07954 112.712C6.75182 112.522 6.47945 112.248 6.28991 111.917C6.10037 111.587 6.00037 111.211 6 110.829C5.99963 110.447 6.09889 110.071 6.28778 109.74L28.1381 70.625C28.3278 70.2926 28.6012 70.0169 28.9303 69.826C29.2595 69.6352 29.6328 69.536 30.0122 69.5385H97.9958C98.3752 69.536 98.7485 69.6352 99.0777 69.826C99.4068 70.0169 99.6802 70.2926 99.8699 70.625L121.72 109.74C121.906 110.072 122.003 110.448 122 110.829C121.997 111.211 121.895 111.585 121.704 111.913ZM96.7607 73.8846H79.7433L82.5464 86.9231H104.026L96.7607 73.8846ZM78.1646 86.9231L75.3614 73.8846H52.6627L49.8596 86.9231H78.1646ZM48.9413 91.2692L45.1823 108.654H82.7988L79.0399 91.2692H48.9413ZM23.9925 86.9231H45.4723L48.2754 73.8846H31.2473L23.9925 86.9231ZM11.8564 108.654H40.7951L44.554 91.2692H21.5492L11.8564 108.654ZM116.184 108.654L106.475 91.2692H83.4808L87.2129 108.654H116.184Z" fill="white" fill-opacity="0.69" shape-rendering="crispEdges"/>
</g>
<defs>
<filter id="filter0_d_163_222" x="0" y="0" width="128" height="125" filterUnits="userSpaceOnUse" color-interpolation-filters="sRGB">
<feFlood flood-opacity="0" result="BackgroundImageFix"/>
<feColorMatrix in="SourceAlpha" type="matrix" values="0 0 0 0 0 0 0 0 0 0 0 0 0 0 0 0 0 0 127 0" result="hardAlpha"/>
<feOffset dy="6"/>
<feGaussianBlur stdDeviation="3"/>
<feComposite in2="hardAlpha" operator="out"/>
<feColorMatrix type="matrix" values="0 0 0 0 0 0 0 0 0 0 0 0 0 0 0 0 0 0 0.25 0"/>
<feBlend mode="normal" in2="BackgroundImageFix" result="effect1_dropShadow_163_222"/>
<feBlend mode="normal" in="SourceGraphic" in2="effect1_dropShadow_163_222" result="shape"/>
</filter>
</defs>
</svg>
